{"title":"22 Jump Street 2014 1080p.BluRay.5.1.x264 . NVEE","uid":11702858,"size":2761251615,"categoryP":"video","categoryS":"hd___movies","magnet":"?xt=urn:btih:b813b46f5374938722d6c0fcab8a305fe66043f2&amp;dn=22+Jump+Street+2014+1080p.BluRay.5.1.x264+.+NVEE&amp;tr=udp%3A%2F%2Ftracker.openbittorrent.com%3A80&amp;tr=udp%3A%2F%2Fopen.demonii.com%3A1337&amp;tr=udp%3A%2F%2Ftracker.coppersurfer.tk%3A6969&amp;tr=udp%3A%2F%2Fexodus.desync.com%3A6969","seeders":4,"leechers":2,"uploader":".NVEE","files":4,"time":1423988078,"description":"Quick note : \nPlease seed to a Share Ratio of at least 3.3 \nIf you require a torrent release I have posted in the past, not seeding,... \nPlease do not hesitate to inform me in any means you find fit to do so. \nTorrent requests also &quot;Always Welcome.&quot; \n\n \nFULL_INFOs \n\n99.99% --- SYNCED GUARANTEED \n\n&quot;Totally scrutinized / analyzed to be a verified torrent.&quot; \n___________________________________________ \n\nSource : Blu-ray ~ 1080p \n\n \n\nSpoken Language : English \n\nAudio : 6 ~ Channels Only \n\n \nSubs Info : \n\nx20 ~ Multi Subs .srt x1 &amp; .idx x19 \nAll .srt UTF-8 .idx &amp; .ass subs can be turned On/Off \n_____________________________________ \n--------------------------------------------------------------------------------- \n \nGeneral Metadata \n\n\nComplete name : 22 Jump Street 2014.808p.BluRay.5.1.x264 . NVEE.mp4 \nFormat : MPEG-4 \nFormat profile : Base Media \nCodec ID : isom \nFile size : 2.36 GiB \nDuration : 1h 51mn \nOverall bit rate : 3 018 Kbps \nEncoded date : UTC 2014-12-08 00:57:04 \nTagged date : UTC 2014-12-08 00:57:04 \n \nVideo \n\nID : 1 \nFormat : AVC \nFormat/Info : Advanced Video Codec \nFormat profile : &lt;a class=&quot;__cf_email__&quot; href=&quot;/cdn-cgi/l/email-protection&quot; data-cfemail=&quot;561e3f313e161a627867&quot;&gt;[email&amp;#160;protected]&lt;/a&gt;&lt;script cf-hash='f9e31' type=&quot;text/javascript&quot;&gt;\n/* &lt;![CDATA[ */!function(){try{var t=&quot;currentScript&quot;in document?document.currentScript:function(){for(var t=document.getElementsByTagName(&quot;script&quot;),e=t.length;e--;)if(t[e].getAttribute(&quot;cf-hash&quot;))return t[e]}();if(t&amp;&amp;t.previousSibling){var e,r,n,i,c=t.previousSibling,a=c.getAttribute(&quot;data-cfemail&quot;);if(a){for(e=&quot;&quot;,r=parseInt(a.substr(0,2),16),n=2;a.length-n;n+=2)i=parseInt(a.substr(n,2),16)^r,e+=String.fromCharCode(i);e=document.createTextNode(e),c.parentNode.replaceChild(e,c)}}}catch(u){}}();/* ]]&gt; */&lt;/script&gt; \nFormat settings, CABAC : Yes \nFormat settings, ReFrames : 3 frames \nCodec ID : avc1 \nCodec ID/Info : Advanced Video Coding \nDuration : 1h 51mn \nBit rate : 2 376 Kbps \nMaximum bit rate : 15.9 Mbps \nWidth : 1 920 pixels \nHeight : 808 pixels \nDisplay aspect ratio : 2.40:1 \nFrame rate mode : Constant \nFrame rate : 23.976 fps \nColor space : YUV \nChroma subsampling : 4:2:0 \nBit depth : 8 bits \nScan type : Progressive \nBits/(Pixel*Frame) : 0.064 \nStream size : 1.86 GiB (79%) \nWriting library : x264 core 142 r2491 24e4fed \nEncoded from Physical Blu-ray / Region B \n\n \nAudio \n\nID : 2 \nFormat : AC-3 \nFormat/Info : Audio Coding 3 \nMode extension : CM (complete main) \nFormat settings, Endianness : Big \nCodec ID : ac-3 \nDuration : 1h 51mn \nBit rate mode : Constant \nBit rate : 640 Kbps \nChannel(s) : 6 channels \nChannel positions : Front: L C R, Side: L R, LFE \nSampling rate : 48.0 KHz \nBit depth : 16 bits \nCompression mode : Lossy \nStream size : 512 MiB (21%) \nLanguage : English \nEncoded date : UTC 2014-12-08 01:05:56 \nTagged date : UTC 2014-12-08 01:06:08 \nEncoded from Physical Blu-ray 6 Channel audio &quot;Always&quot;. \n\n \n\n \n\n \n\n\n\n\nEnj0y !","torrent":{"xt":"urn:btih:b813b46f5374938722d6c0fcab8a305fe66043f2","amp;dn":"22+Jump+Street+2014+1080p.BluRay.5.1.x264+.+NVEE","amp;tr":["udp%3A%2F%2Ftracker.openbittorrent.com%3A80","udp%3A%2F%2Fopen.demonii.com%3A1337","udp%3A%2F%2Ftracker.coppersurfer.tk%3A6969","udp%3A%2F%2Fexodus.desync.com%3A6969"],"infoHash":"b813b46f5374938722d6c0fcab8a305fe66043f2","infoHashBuffer":{"type":"Buffer","data":[184,19,180,111,83,116,147,135,34,214,192,252,171,138,48,95,230,96,67,242]},"announce":[],"urlList":[]}}